<svg width="74" height="74" viewBox="0 0 74 74" fill="none" xmlns="http://www.w3.org/2000/svg">
<g clip-path="url(#clip0)">
<path d="M47.7894 10.3128C48.3873 10.3128 48.8719 9.82811 48.8719 9.23024C48.8719 8.63237 48.3873 8.14771 47.7894 8.14771C47.1915 8.14771 46.7068 8.63237 46.7068 9.23024C46.7068 9.82811 47.1915 10.3128 47.7894 10.3128Z" fill="#FFC230"/>
<path d="M52.4415 10.3128C53.0394 10.3128 53.5241 9.82811 53.5241 9.23024C53.5241 8.63237 53.0394 8.14771 52.4415 8.14771C51.8437 8.14771 51.359 8.63237 51.359 9.23024C51.359 9.82811 51.8437 10.3128 52.4415 10.3128Z" fill="#FFC230"/>
<path d="M20.4759 10.3142H39.9569C40.5556 10.3142 41.0409 9.82887 41.0409 9.23022C41.0409 8.63158 40.5556 8.14624 39.9569 8.14624H20.4759C19.8772 8.14624 19.3919 8.63158 19.3919 9.23022C19.3919 9.82887 19.8772 10.3142 20.4759 10.3142Z" fill="#FFC230"/>
<path d="M71.1202 59.3694H69.2178V52.2683C69.2178 51.6696 68.7324 51.1843 68.1338 51.1843C67.5351 51.1843 67.0498 51.6696 67.0498 52.2683V59.3694C62.404 59.3694 9.81729 59.3694 6.95036 59.3694V22.7625C6.95036 21.2883 8.14968 20.0888 9.62405 20.0888H14.7685V23.0091H11.9462C10.8017 23.0091 9.87062 23.9403 9.87062 25.0849V54.3734C9.87062 55.5179 10.8017 56.4491 11.9462 56.4491H62.0536C63.1982 56.4491 64.1292 55.5179 64.1292 54.3734V25.0849C64.1292 23.9403 63.1982 23.0091 62.0536 23.0091H59.2315V20.0888H64.376C65.8502 20.0888 67.0496 21.2882 67.0496 22.7625V47.1976C67.0496 47.7962 67.535 48.2815 68.1336 48.2815C68.7323 48.2815 69.2176 47.7962 69.2176 47.1976V22.7625C69.2176 20.0929 67.0457 17.9209 64.376 17.9209H59.2315V5.99126C59.2315 4.76564 58.2344 3.76837 57.0086 3.76837H16.9914C15.7656 3.76837 14.7685 4.76549 14.7685 5.99126V17.9209H9.6239C6.95427 17.9209 4.78225 20.0927 4.78225 22.7625V59.3695H2.87979C1.29182 59.3694 0 60.6614 0 62.2493C0 66.6507 3.58091 70.2316 7.98232 70.2316H66.0177C70.4191 70.2316 74 66.6507 74 62.2493C74 60.6612 72.7082 59.3694 71.1202 59.3694ZM12.0386 25.1771H14.7683V54.2812H12.0386V25.1771ZM61.9614 25.1771V54.2812H59.2317V25.1771H61.9614ZM16.9914 5.93649H57.0088C57.039 5.93649 57.0637 5.96106 57.0637 5.99141V12.5242H25.4164C24.8178 12.5242 24.3324 13.0096 24.3324 13.6082C24.3324 14.2069 24.8178 14.6922 25.4164 14.6922H57.0637V54.2813H16.9363V14.692H20.3487C20.9473 14.692 21.4327 14.2067 21.4327 13.6081C21.4327 13.0094 20.9473 12.5241 20.3487 12.5241H16.9363V5.99126C16.9363 5.96106 16.961 5.93649 16.9914 5.93649ZM26.5504 61.5374H47.4496V62.6268C47.4496 63.2277 46.9608 63.7165 46.36 63.7165H27.64C27.0392 63.7165 26.5504 63.2277 26.5504 62.6268V61.5374ZM66.0177 68.0635H7.98232C4.77632 68.0635 2.16797 65.4552 2.16797 62.2492C2.16797 61.8568 2.48724 61.5374 2.87979 61.5374H24.3824V62.6268C24.3824 64.4231 25.8438 65.8844 27.64 65.8844H46.36C48.1562 65.8844 49.6176 64.4231 49.6176 62.6268V61.5374H71.1202C71.5128 61.5374 71.832 61.8566 71.832 62.2492C71.832 65.4553 69.2237 68.0635 66.0177 68.0635Z" fill="#FFC230"/>
<path d="M22.5482 34.8111L21.7623 35.0136C20.0179 35.4629 18.9696 37.2385 19.4191 38.9833L19.9618 41.09C20.3402 42.5588 21.6674 43.5367 23.1188 43.5366C23.7424 43.5366 24.0906 43.3731 24.8462 43.1975C25.3956 43.8376 26.233 44.1922 27.1009 44.1089L30.9021 49.8707C31.2972 50.4697 31.9621 50.8153 32.6571 50.8153C33.0878 50.8153 33.2741 50.7078 34.4117 50.4317C35.5369 50.1421 36.213 48.9968 35.9232 47.8715L34.4739 42.2461L36.0206 41.8476C40.1412 40.7862 44.4812 41.8021 47.6978 44.5641L47.7113 44.6168C47.9202 45.4276 48.4324 46.1085 49.1535 46.5342C49.6426 46.8229 50.188 46.9706 50.7414 46.9706C51.0039 46.9706 51.2681 46.9374 51.5288 46.8702C52.3397 46.6613 53.0205 46.1491 53.4462 45.4281C53.8718 44.707 53.9912 43.8634 53.7822 43.0527L48.0007 20.6122C47.7918 19.8014 47.2796 19.1205 46.5586 18.6948C45.8376 18.2693 44.994 18.15 44.183 18.3588C43.3722 18.5677 42.6913 19.0799 42.2657 19.8009C41.84 20.522 41.7207 21.3656 41.9297 22.1763L41.9432 22.2291C40.4618 26.2015 37.153 29.1882 33.0326 30.2498L24.5214 32.4427C23.3957 32.7327 22.6281 33.7111 22.5482 34.8111ZM23.3908 41.3338C22.8082 41.4839 22.2115 41.132 22.0612 40.5491L21.5185 38.4424C21.3679 37.8581 21.719 37.2636 22.3033 37.113L22.9543 36.9452L24.0417 41.1661L23.3908 41.3338ZM33.8074 48.3488L32.686 48.6377L29.3416 43.5684L32.3744 42.787L33.8074 48.3488ZM44.1326 20.9028C44.2638 20.6806 44.4738 20.5226 44.7239 20.4581C44.8045 20.4373 44.8853 20.4275 44.965 20.4275C45.3954 20.4275 45.7889 20.7176 45.9012 21.153L51.6828 43.5935C51.8157 44.1096 51.504 44.6378 50.9879 44.7707C50.4719 44.9037 49.9436 44.5921 49.8107 44.0758L44.029 21.6353C43.9647 21.3853 44.0014 21.1253 44.1326 20.9028ZM42.7794 25.4741L46.8616 41.3188C41.0175 37.9133 35.4519 39.7812 35.323 39.7885L33.4168 32.3895C33.5338 32.3331 39.3021 31.29 42.7794 25.4741ZM25.0623 34.5421L31.3173 32.9306L33.2235 40.3296C31.3201 40.82 28.2819 41.6028 26.9686 41.9411C26.5142 42.0577 26.3995 41.5976 26.3879 41.5831L24.7222 35.1182C24.6572 34.8656 24.8098 34.6072 25.0623 34.5421Z" fill="#FFC230"/>
</g>
<defs>
<clipPath id="clip0">
<rect width="74" height="74" fill="white"/>
</clipPath>
</defs>
</svg>
