<svg width="68" height="68" viewBox="0 0 68 68" fill="none" xmlns="http://www.w3.org/2000/svg">
<g clip-path="url(#clip0)">
<path d="M31.6094 49.3385C31.0591 49.3385 30.6133 49.7845 30.6133 50.3346C30.6133 50.8847 31.0591 51.3307 31.6094 51.3307H36.3906C36.9409 51.3307 37.3867 50.8847 37.3867 50.3346C37.3867 49.7845 36.9409 49.3385 36.3906 49.3385H31.6094Z" fill="#FFB400"/>
<path d="M11.9531 33.8716H18.5374C18.9396 34.9183 19.9528 35.6646 21.1394 35.6646C22.3259 35.6646 23.3391 34.9183 23.7413 33.8716H25.0573C25.6076 33.8716 26.0534 33.4257 26.0534 32.8756C26.0534 32.3254 25.6076 31.8795 25.0573 31.8795H23.7413C23.3391 30.8328 22.3259 30.0865 21.1394 30.0865C19.9528 30.0865 18.9396 30.8328 18.5374 31.8795H11.9531C11.4029 31.8795 10.957 32.3254 10.957 32.8756C10.957 33.4257 11.4029 33.8716 11.9531 33.8716ZM21.1394 32.0787C21.5788 32.0787 21.9362 32.4361 21.9362 32.8756C21.9362 33.315 21.5788 33.6724 21.1394 33.6724C20.6999 33.6724 20.3425 33.315 20.3425 32.8756C20.3425 32.4361 20.6999 32.0787 21.1394 32.0787Z" fill="#FFB400"/>
<path d="M11.9531 28.1607H13.2249C13.6271 29.2074 14.6403 29.9537 15.8269 29.9537C17.0134 29.9537 18.0266 29.2074 18.4288 28.1607H25.0573C25.6076 28.1607 26.0534 27.7147 26.0534 27.1646C26.0534 26.6145 25.6076 26.1685 25.0573 26.1685H18.4288C18.0266 25.1218 17.0134 24.3755 15.8269 24.3755C14.6403 24.3755 13.6271 25.1218 13.2249 26.1685H11.9531C11.4029 26.1685 10.957 26.6145 10.957 27.1646C10.957 27.7147 11.4029 28.1607 11.9531 28.1607ZM15.8269 26.3677C16.2663 26.3677 16.6237 26.7251 16.6237 27.1646C16.6237 27.6041 16.2663 27.9615 15.8269 27.9615C15.3874 27.9615 15.03 27.6041 15.03 27.1646C15.03 26.7251 15.3874 26.3677 15.8269 26.3677Z" fill="#FFB400"/>
<path d="M25.2566 18.9966C25.8067 18.9966 26.2526 18.5507 26.2526 18.0005C26.2526 17.4504 25.8067 17.0045 25.2566 17.0045C24.7064 17.0045 24.2605 17.4504 24.2605 18.0005C24.2605 18.5507 24.7064 18.9966 25.2566 18.9966Z" fill="#FFB400"/>
<path d="M22.5117 18.9966C23.0618 18.9966 23.5078 18.5507 23.5078 18.0005C23.5078 17.4504 23.0618 17.0045 22.5117 17.0045C21.9616 17.0045 21.5156 17.4504 21.5156 18.0005C21.5156 18.5507 21.9616 18.9966 22.5117 18.9966Z" fill="#FFB400"/>
<path d="M19.7669 18.9966C20.317 18.9966 20.763 18.5507 20.763 18.0005C20.763 17.4504 20.317 17.0045 19.7669 17.0045C19.2168 17.0045 18.7708 17.4504 18.7708 18.0005C18.7708 18.5507 19.2168 18.9966 19.7669 18.9966Z" fill="#FFB400"/>
<path d="M65.0117 6.70474H64.6386L64.9169 6.42649C65.7503 5.59309 65.7503 4.23695 64.9169 3.40355L62.7364 1.22303C61.903 0.389767 60.547 0.389767 59.7134 1.22303L54.2321 6.7046H2.98828C1.34061 6.7046 0 8.04508 0 9.69288V51.0592C0 53.0732 1.63838 54.7115 3.65234 54.7115H27.2458V61.7579H22.4453C21.1638 61.7579 20.1211 62.8006 20.1211 64.0821V65.0774C20.1211 66.3589 21.1638 67.4016 22.4453 67.4016H45.5547C46.8362 67.4016 47.8789 66.3589 47.8789 65.0774V64.0821C47.8789 62.8006 46.8362 61.7579 45.5547 61.7579H40.7542V54.7115H51.3984C51.9487 54.7115 52.3945 54.2656 52.3945 53.7154C52.3945 53.1653 51.9487 52.7193 51.3984 52.7193H3.65234C2.73687 52.7193 1.99219 51.9747 1.99219 51.0592V48.1108H66.0078V51.0592C66.0078 51.9747 65.2631 52.7193 64.3477 52.7193H56.0469C55.4966 52.7193 55.0508 53.1653 55.0508 53.7154C55.0508 54.2656 55.4966 54.7115 56.0469 54.7115H64.3477C66.3616 54.7115 68 53.0732 68 51.0592V9.69302C68 8.04534 66.6594 6.70474 65.0117 6.70474ZM45.5547 63.7502C45.7378 63.7502 45.8867 63.8992 45.8867 64.0823V65.0775C45.8867 65.2606 45.7378 65.4096 45.5547 65.4096H22.4453C22.2622 65.4096 22.1133 65.2606 22.1133 65.0775V64.0823C22.1133 63.8992 22.2622 63.7502 22.4453 63.7502H45.5547ZM29.238 54.7118H38.7621V61.7582H29.238V54.7118ZM61.1222 2.63191C61.179 2.5752 61.2712 2.57533 61.3278 2.63191L63.5081 4.81229C63.5649 4.869 63.5649 4.96131 63.5081 5.01788L61.4276 7.09839L59.0417 4.71241L61.1222 2.63191ZM57.6329 6.12116L60.0188 8.50713L59.324 9.20188L56.9382 6.8159L57.6329 6.12116ZM55.5294 8.22464L57.9154 10.6106L46.1282 22.3979L43.7422 20.0119L55.5294 8.22464ZM54.0547 17.3315C55.4095 17.3315 56.5117 18.4337 56.5117 19.7885C56.5117 21.1433 55.4095 22.2455 54.0547 22.2455C52.6999 22.2455 51.5977 21.1433 51.5977 19.7885C51.5977 19.7727 51.5998 19.7574 51.6 19.7416L54.0082 17.3339C54.0237 17.3336 54.039 17.3315 54.0547 17.3315ZM44.3984 23.4856L41.4504 24.6897L42.6545 21.7416L44.3984 23.4856ZM66.0078 46.1188H1.99219V9.69302C1.99219 9.14384 2.43897 8.69692 2.98828 8.69692H52.2401L50.7212 10.2158H16.8672C16.3169 10.2158 15.8711 10.6617 15.8711 11.2119C15.8711 11.762 16.3169 12.208 16.8672 12.208H48.7292L41.7033 19.2343C41.5047 19.4345 41.3494 19.6683 41.2425 19.9299L39.0175 25.3774C38.8134 25.8777 38.9284 26.4478 39.3105 26.8298C39.567 27.0863 39.908 27.2223 40.2559 27.2223C40.4264 27.2223 40.5984 27.1896 40.7629 27.1225L46.2103 24.8977C46.4645 24.7938 46.6918 24.6435 46.8884 24.4529L49.9186 21.423C50.5714 23.0698 52.1784 24.2378 54.0548 24.2378C56.5081 24.2378 58.504 22.2419 58.504 19.7886C58.504 17.9125 57.3362 16.3056 55.6897 15.6527L59.1348 12.2081H62.4968V42.6079H61.9688L58.359 36.3555C58.0841 35.879 57.4745 35.7158 56.9983 35.9909C56.5219 36.266 56.3587 36.8752 56.6338 37.3516L59.6685 42.6079H45.7538L44.2614 40.023L51.2187 27.9725L54.3094 33.3259C54.5846 33.8023 55.1938 33.9657 55.6701 33.6905C56.1465 33.4155 56.3097 32.8062 56.0347 32.3298L52.7373 26.6188C52.4203 26.0697 51.8527 25.7419 51.2186 25.7419C50.5846 25.7419 50.0168 26.0697 49.6998 26.6188L43.1109 38.031L34.6569 23.3882C34.3399 22.8392 33.7722 22.5114 33.138 22.5114C32.5041 22.5114 31.9364 22.8392 31.6193 23.3882L29.3733 27.2785V16.6013C29.3733 15.3197 28.3306 14.277 27.0491 14.277H9.96094C8.67943 14.277 7.63672 15.3197 7.63672 16.6013V38.3825C7.63672 39.298 8.3814 40.0427 9.29688 40.0427H22.0042L20.5231 42.6081H5.50335V12.208H12.2188C12.769 12.208 13.2148 11.762 13.2148 11.2119C13.2148 10.6617 12.769 10.2158 12.2188 10.2158H5.17132C4.25584 10.2158 3.51116 10.9604 3.51116 11.8759V42.9398C3.51116 43.8553 4.25584 44.6 5.17132 44.6H62.8288C63.7443 44.6 64.489 43.8553 64.489 42.9398V11.8759C64.489 10.9604 63.7443 10.2158 62.8288 10.2158H61.1272L62.6463 8.69692H65.0117C65.561 8.69692 66.0078 9.14384 66.0078 9.69302V46.1188ZM27.3816 22.1178V38.0502H9.62891V22.1178H27.3816ZM9.62891 20.1256V16.601C9.62891 16.418 9.77779 16.269 9.96094 16.269H27.0495C27.2327 16.269 27.3816 16.418 27.3816 16.601V20.1256H9.62891ZM24.3047 40.0424H27.7136C28.6291 40.0424 29.3737 39.2977 29.3737 38.3822V36.2722C29.6229 36.3918 29.9003 36.4565 30.1909 36.4565C30.8709 36.4565 31.4797 36.1048 31.8196 35.516L33.5148 32.5799C33.5661 32.4912 33.6445 32.4725 33.7009 32.4725C33.7576 32.4725 33.836 32.4912 33.8871 32.5799L34.9322 34.39C35.2722 34.9791 35.8812 35.3306 36.5613 35.3306C37.2413 35.3306 37.8502 34.979 38.1901 34.3902L38.4496 33.9407L43.4535 42.6077H22.8236L24.3047 40.0424ZM29.3737 32.9379V31.2626L33.1386 24.7419L37.2993 31.9485L36.5612 33.227L35.6123 31.5837C35.2134 30.8927 34.4988 30.4802 33.7008 30.4802C32.9028 30.4802 32.1883 30.8927 31.7893 31.5837L30.1905 34.3528L29.3737 32.9379Z" fill="#FFB400"/>
</g>
<defs>
<clipPath id="clip0">
<rect width="68" height="68" fill="white"/>
</clipPath>
</defs>
</svg>
