<svg width="78" height="42" viewBox="0 0 78 42" fill="none" xmlns="http://www.w3.org/2000/svg">
<path d="M2.887 5.073C3.21633 5.073 3.50233 5.03183 3.745 4.9495C3.992 4.86717 4.1935 4.7545 4.3495 4.6115C4.50983 4.46417 4.629 4.29083 4.707 4.0915C4.785 3.89217 4.824 3.67333 4.824 3.435C4.824 2.95833 4.66583 2.59217 4.3495 2.3365C4.0375 2.08083 3.55867 1.953 2.913 1.953H1.795V5.073H2.887ZM7.385 10H5.8055C5.5065 10 5.28983 9.883 5.1555 9.649L3.1795 6.6395C3.10583 6.52683 3.0235 6.44667 2.9325 6.399C2.84583 6.35133 2.71583 6.3275 2.5425 6.3275H1.795V10H0.0465001V0.600999H2.913C3.55 0.600999 4.096 0.668166 4.551 0.802499C5.01033 0.932499 5.38517 1.11667 5.6755 1.355C5.97017 1.59333 6.18683 1.87933 6.3255 2.213C6.46417 2.54233 6.5335 2.90633 6.5335 3.305C6.5335 3.62133 6.48583 3.92033 6.3905 4.202C6.2995 4.48367 6.16517 4.73933 5.9875 4.969C5.81417 5.19867 5.5975 5.40017 5.3375 5.5735C5.08183 5.74683 4.78933 5.88333 4.46 5.983C4.57267 6.048 4.67667 6.126 4.772 6.217C4.86733 6.30367 4.954 6.40767 5.032 6.529L7.385 10ZM14.055 10H12.3V0.600999H14.055V10ZM28.4054 5.3005C28.4054 5.9895 28.2906 6.62217 28.0609 7.1985C27.8312 7.77483 27.5084 8.271 27.0924 8.687C26.6764 9.103 26.1759 9.42583 25.5909 9.6555C25.0059 9.88517 24.3559 10 23.6409 10H20.0594V0.600999H23.6409C24.3559 0.600999 25.0059 0.717999 25.5909 0.951999C26.1759 1.18167 26.6764 1.5045 27.0924 1.9205C27.5084 2.33217 27.8312 2.82617 28.0609 3.4025C28.2906 3.97883 28.4054 4.6115 28.4054 5.3005ZM26.6114 5.3005C26.6114 4.78483 26.5421 4.32333 26.4034 3.916C26.2691 3.50433 26.0719 3.15767 25.8119 2.876C25.5562 2.59 25.2442 2.37117 24.8759 2.2195C24.5119 2.06783 24.1002 1.992 23.6409 1.992H21.8144V8.609H23.6409C24.1002 8.609 24.5119 8.53317 24.8759 8.3815C25.2442 8.22983 25.5562 8.01317 25.8119 7.7315C26.0719 7.4455 26.2691 7.09883 26.4034 6.6915C26.5421 6.27983 26.6114 5.81617 26.6114 5.3005ZM41.7725 0.600999V10H40.0175V5.892H35.604V10H33.849V0.600999H35.604V4.644H40.0175V0.600999H41.7725ZM56.7291 5.3005C56.7291 5.9895 56.6143 6.62867 56.3846 7.218C56.1593 7.803 55.8386 8.31 55.4226 8.739C55.0066 9.168 54.5061 9.50383 53.9211 9.7465C53.3361 9.98483 52.6861 10.104 51.9711 10.104C51.2605 10.104 50.6126 9.98483 50.0276 9.7465C49.4426 9.50383 48.94 9.168 48.5196 8.739C48.1036 8.31 47.7808 7.803 47.5511 7.218C47.3215 6.62867 47.2066 5.9895 47.2066 5.3005C47.2066 4.6115 47.3215 3.9745 47.5511 3.3895C47.7808 2.80017 48.1036 2.291 48.5196 1.862C48.94 1.433 49.4426 1.09933 50.0276 0.861C50.6126 0.618333 51.2605 0.497 51.9711 0.497C52.4478 0.497 52.8963 0.553333 53.3166 0.665999C53.737 0.774333 54.1226 0.930333 54.4736 1.134C54.8246 1.33333 55.1388 1.57817 55.4161 1.8685C55.6978 2.1545 55.9361 2.47517 56.1311 2.8305C56.3261 3.18583 56.4735 3.5715 56.5731 3.9875C56.6771 4.4035 56.7291 4.84117 56.7291 5.3005ZM54.9416 5.3005C54.9416 4.78483 54.8723 4.32333 54.7336 3.916C54.595 3.50433 54.3978 3.1555 54.1421 2.8695C53.8865 2.5835 53.5745 2.36467 53.2061 2.213C52.8421 2.06133 52.4305 1.9855 51.9711 1.9855C51.5118 1.9855 51.098 2.06133 50.7296 2.213C50.3656 2.36467 50.0536 2.5835 49.7936 2.8695C49.538 3.1555 49.3408 3.50433 49.2021 3.916C49.0635 4.32333 48.9941 4.78483 48.9941 5.3005C48.9941 5.81617 49.0635 6.27983 49.2021 6.6915C49.3408 7.09883 49.538 7.4455 49.7936 7.7315C50.0536 8.01317 50.3656 8.22983 50.7296 8.3815C51.098 8.53317 51.5118 8.609 51.9711 8.609C52.4305 8.609 52.8421 8.53317 53.2061 8.3815C53.5745 8.22983 53.8865 8.01317 54.1421 7.7315C54.3978 7.4455 54.595 7.09883 54.7336 6.6915C54.8723 6.27983 54.9416 5.81617 54.9416 5.3005ZM1.8015 17.992V20.5985H5.0905V21.944H1.8015V24.6025H5.9745V26H0.0465001V16.601H5.9745V17.992H1.8015ZM16.9295 24.557V26H11.424V16.601H13.1725V24.557H16.9295ZM27.0439 22.451L25.8999 19.3245C25.8436 19.1858 25.7851 19.0212 25.7244 18.8305C25.6638 18.6398 25.6031 18.434 25.5424 18.213C25.4861 18.434 25.4276 18.642 25.3669 18.837C25.3063 19.0277 25.2478 19.1945 25.1914 19.3375L24.0539 22.451H27.0439ZM30.1314 26H28.7794C28.6278 26 28.5043 25.9632 28.4089 25.8895C28.3136 25.8115 28.2421 25.7162 28.1944 25.6035L27.4924 23.686H23.5989L22.8969 25.6035C22.8623 25.7032 22.7951 25.7942 22.6954 25.8765C22.5958 25.9588 22.4723 26 22.3249 26H20.9599L24.6584 16.601H26.4394L30.1314 26ZM42.9278 16.601V26H42.0308C41.8921 26 41.7751 25.9783 41.6798 25.935C41.5888 25.8873 41.5 25.8093 41.4133 25.701L36.5058 19.435C36.5318 19.721 36.5448 19.9853 36.5448 20.228V26H35.0043V16.601H35.9208C35.9945 16.601 36.0573 16.6053 36.1093 16.614C36.1656 16.6183 36.2133 16.6313 36.2523 16.653C36.2956 16.6703 36.3368 16.6985 36.3758 16.7375C36.4148 16.7722 36.4581 16.8198 36.5058 16.8805L41.4328 23.1725C41.4198 23.0208 41.409 22.8713 41.4003 22.724C41.3916 22.5767 41.3873 22.4402 41.3873 22.3145V16.601H42.9278ZM56.6689 21.2875V25.09C56.1922 25.441 55.6831 25.6988 55.1414 25.8635C54.6041 26.0238 54.0277 26.104 53.4124 26.104C52.6454 26.104 51.9499 25.9848 51.3259 25.7465C50.7062 25.5082 50.1754 25.1767 49.7334 24.752C49.2957 24.3273 48.9577 23.8203 48.7194 23.231C48.4811 22.6417 48.3619 21.9982 48.3619 21.3005C48.3619 20.5942 48.4767 19.9463 48.7064 19.357C48.9361 18.7677 49.2611 18.2607 49.6814 17.836C50.1061 17.4113 50.6196 17.082 51.2219 16.848C51.8242 16.614 52.5002 16.497 53.2499 16.497C53.6312 16.497 53.9866 16.5273 54.3159 16.588C54.6496 16.6487 54.9572 16.7332 55.2389 16.8415C55.5249 16.9455 55.7849 17.0733 56.0189 17.225C56.2529 17.3767 56.4674 17.5435 56.6624 17.7255L56.1619 18.5185C56.0839 18.6442 55.9821 18.7222 55.8564 18.7525C55.7307 18.7785 55.5942 18.746 55.4469 18.655C55.3039 18.5727 55.1609 18.4903 55.0179 18.408C54.8749 18.3257 54.7146 18.2542 54.5369 18.1935C54.3636 18.1328 54.1664 18.083 53.9454 18.044C53.7287 18.005 53.4774 17.9855 53.1914 17.9855C52.7277 17.9855 52.3074 18.0635 51.9304 18.2195C51.5577 18.3755 51.2392 18.5987 50.9749 18.889C50.7106 19.1793 50.5069 19.5282 50.3639 19.9355C50.2209 20.3428 50.1494 20.7978 50.1494 21.3005C50.1494 21.8378 50.2252 22.3188 50.3769 22.7435C50.5329 23.1638 50.7496 23.5213 51.0269 23.816C51.3086 24.1063 51.6466 24.3295 52.0409 24.4855C52.4352 24.6372 52.8751 24.713 53.3604 24.713C53.7071 24.713 54.0169 24.6762 54.2899 24.6025C54.5629 24.5288 54.8294 24.4292 55.0894 24.3035V22.6005H53.9064C53.7937 22.6005 53.7049 22.5702 53.6399 22.5095C53.5792 22.4445 53.5489 22.3665 53.5489 22.2755V21.2875H56.6689ZM7.97 32.601V42H6.215V37.892H1.8015V42H0.0465001V32.601H1.8015V36.644H6.215V32.601H7.97ZM15.7181 42H13.9631V32.601H15.7181V42ZM30.0685 37.3005C30.0685 37.9895 29.9536 38.6222 29.724 39.1985C29.4943 39.7748 29.1715 40.271 28.7555 40.687C28.3395 41.103 27.839 41.4258 27.254 41.6555C26.669 41.8852 26.019 42 25.304 42H21.7225V32.601H25.304C26.019 32.601 26.669 32.718 27.254 32.952C27.839 33.1817 28.3395 33.5045 28.7555 33.9205C29.1715 34.3322 29.4943 34.8262 29.724 35.4025C29.9536 35.9788 30.0685 36.6115 30.0685 37.3005ZM28.2745 37.3005C28.2745 36.7848 28.2051 36.3233 28.0665 35.916C27.9321 35.5043 27.735 35.1577 27.475 34.876C27.2193 34.59 26.9073 34.3712 26.539 34.2195C26.175 34.0678 25.7633 33.992 25.304 33.992H23.4775V40.609H25.304C25.7633 40.609 26.175 40.5332 26.539 40.3815C26.9073 40.2298 27.2193 40.0132 27.475 39.7315C27.735 39.4455 27.9321 39.0988 28.0665 38.6915C28.2051 38.2798 28.2745 37.8162 28.2745 37.3005ZM40.1861 38.451L39.0421 35.3245C38.9858 35.1858 38.9273 35.0212 38.8666 34.8305C38.806 34.6398 38.7453 34.434 38.6846 34.213C38.6283 34.434 38.5698 34.642 38.5091 34.837C38.4485 35.0277 38.39 35.1945 38.3336 35.3375L37.1961 38.451H40.1861ZM43.2736 42H41.9216C41.77 42 41.6465 41.9632 41.5511 41.8895C41.4558 41.8115 41.3843 41.7162 41.3366 41.6035L40.6346 39.686H36.7411L36.0391 41.6035C36.0045 41.7032 35.9373 41.7942 35.8376 41.8765C35.738 41.9588 35.6145 42 35.4671 42H34.1021L37.8006 32.601H39.5816L43.2736 42ZM51.2055 38.36V42H49.4635V38.36L46.038 32.601H47.5785C47.7301 32.601 47.8493 32.6378 47.936 32.7115C48.027 32.7852 48.1028 32.8783 48.1635 32.991L49.8795 36.1305C49.9791 36.3168 50.0658 36.4923 50.1395 36.657C50.2175 36.8217 50.2868 36.9863 50.3475 37.151C50.4038 36.9863 50.4688 36.8217 50.5425 36.657C50.6161 36.4923 50.7006 36.3168 50.796 36.1305L52.5055 32.991C52.5531 32.8957 52.6246 32.8068 52.72 32.7245C52.8153 32.6422 52.9366 32.601 53.084 32.601H54.631L51.2055 38.36ZM63.4871 38.451L62.3431 35.3245C62.2868 35.1858 62.2283 35.0212 62.1676 34.8305C62.1069 34.6398 62.0463 34.434 61.9856 34.213C61.9293 34.434 61.8708 34.642 61.8101 34.837C61.7494 35.0277 61.6909 35.1945 61.6346 35.3375L60.4971 38.451H63.4871ZM66.5746 42H65.2226C65.0709 42 64.9474 41.9632 64.8521 41.8895C64.7568 41.8115 64.6853 41.7162 64.6376 41.6035L63.9356 39.686H60.0421L59.3401 41.6035C59.3054 41.7032 59.2383 41.7942 59.1386 41.8765C59.0389 41.9588 58.9154 42 58.7681 42H57.4031L61.1016 32.601H62.8826L66.5746 42ZM77.0984 34.0375H74.2644V42H72.5159V34.0375H69.6819V32.601H77.0984V34.0375Z" fill="black"/>
</svg>
